solid CATIA STL
  facet normal  0.000000e+000  1.067045e-001 -9.942908e-001
    outer loop
      vertex -3.150000e+003 -2.982872e+002  1.977989e+003
      vertex  0.000000e+000  0.000000e+000  2.010000e+003
      vertex  1.000000e+002 -2.982872e+002  1.977989e+003
    endloop
  endfacet
  facet normal -3.789218e-007  1.067044e-001 -9.942908e-001
    outer loop
      vertex  1.000000e+002 -2.982872e+002  1.977989e+003
      vertex  0.000000e+000  0.000000e+000  2.010000e+003
      vertex  0.000000e+000  2.050000e+003  2.230000e+003
    endloop
  endfacet
  facet normal  7.705215e-007  1.067044e-001 -9.942908e-001
    outer loop
      vertex  1.000000e+002 -2.982872e+002  1.977989e+003
      vertex  0.000000e+000  2.050000e+003  2.230000e+003
      vertex  1.000000e+002  2.726118e+003  2.302559e+003
    endloop
  endfacet
  facet normal  0.000000e+000  1.067045e-001 -9.942908e-001
    outer loop
      vertex  0.000000e+000  0.000000e+000  2.010000e+003
      vertex -3.150000e+003 -2.982872e+002  1.977989e+003
      vertex -3.050000e+003  0.000000e+000  2.010000e+003
    endloop
  endfacet
  facet normal  2.311564e-007  1.067044e-001 -9.942908e-001
    outer loop
      vertex -3.050000e+003  0.000000e+000  2.010000e+003
      vertex -3.150000e+003 -2.982872e+002  1.977989e+003
      vertex -3.150000e+003  2.726118e+003  2.302559e+003
    endloop
  endfacet
  facet normal -1.136765e-006  1.067044e-001 -9.942908e-001
    outer loop
      vertex -3.050000e+003  0.000000e+000  2.010000e+003
      vertex -3.150000e+003  2.726118e+003  2.302559e+003
      vertex -3.050000e+003  2.050000e+003  2.230000e+003
    endloop
  endfacet
  facet normal  0.000000e+000  1.067045e-001 -9.942907e-001
    outer loop
      vertex -3.050000e+003  2.050000e+003  2.230000e+003
      vertex -3.150000e+003  2.726118e+003  2.302559e+003
      vertex  1.000000e+002  2.726118e+003  2.302559e+003
    endloop
  endfacet
  facet normal  0.000000e+000  1.067045e-001 -9.942908e-001
    outer loop
      vertex -3.050000e+003  2.050000e+003  2.230000e+003
      vertex  1.000000e+002  2.726118e+003  2.302559e+003
      vertex  0.000000e+000  2.050000e+003  2.230000e+003
    endloop
  endfacet
  facet normal  -0.000000e+000  0.000000e+000 -1.000000e+000
    outer loop
      vertex -3.050000e+003  2.050000e+003 -1.000000e+002
      vertex  0.000000e+000  2.050000e+003 -1.000000e+002
      vertex -3.050000e+003  0.000000e+000 -1.000000e+002
    endloop
  endfacet
  facet normal  0.000000e+000  0.000000e+000 -1.000000e+000
    outer loop
      vertex -3.050000e+003  0.000000e+000 -1.000000e+002
      vertex  0.000000e+000  2.050000e+003 -1.000000e+002
      vertex  0.000000e+000  0.000000e+000 -1.000000e+002
    endloop
  endfacet
  facet normal -1.000000e+000  0.000000e+000  0.000000e+000
    outer loop
      vertex -3.050000e+003  0.000000e+000 -1.000000e+002
      vertex -3.050000e+003  0.000000e+000  2.010000e+003
      vertex -3.050000e+003  1.000000e+002  0.000000e+000
    endloop
  endfacet
  facet normal -1.000000e+000  0.000000e+000  -0.000000e+000
    outer loop
      vertex -3.050000e+003  0.000000e+000 -1.000000e+002
      vertex -3.050000e+003  1.000000e+002  0.000000e+000
      vertex -3.050000e+003  1.000000e+002 -7.000000e+001
    endloop
  endfacet
  facet normal -1.000000e+000  0.000000e+000  -0.000000e+000
    outer loop
      vertex -3.050000e+003  0.000000e+000 -1.000000e+002
      vertex -3.050000e+003  1.000000e+002 -7.000000e+001
      vertex -3.050000e+003  9.500000e+002 -7.000000e+001
    endloop
  endfacet
  facet normal -1.000000e+000  0.000000e+000  -0.000000e+000
    outer loop
      vertex -3.050000e+003  0.000000e+000 -1.000000e+002
      vertex -3.050000e+003  9.500000e+002 -7.000000e+001
      vertex -3.050000e+003  1.100000e+003 -7.000000e+001
    endloop
  endfacet
  facet normal -1.000000e+000  0.000000e+000  -0.000000e+000
    outer loop
      vertex -3.050000e+003  0.000000e+000 -1.000000e+002
      vertex -3.050000e+003  1.100000e+003 -7.000000e+001
      vertex -3.050000e+003  1.950000e+003 -7.000000e+001
    endloop
  endfacet
  facet normal -1.000000e+000  0.000000e+000  -0.000000e+000
    outer loop
      vertex -3.050000e+003  0.000000e+000 -1.000000e+002
      vertex -3.050000e+003  1.950000e+003 -7.000000e+001
      vertex -3.050000e+003  2.050000e+003 -1.000000e+002
    endloop
  endfacet
  facet normal -1.000000e+000  0.000000e+000  0.000000e+000
    outer loop
      vertex -3.050000e+003  0.000000e+000  2.010000e+003
      vertex -3.050000e+003  2.050000e+003  2.230000e+003
      vertex -3.050000e+003  1.950000e+003  0.000000e+000
    endloop
  endfacet
  facet normal -9.999999e-001  0.000000e+000  0.000000e+000
    outer loop
      vertex -3.050000e+003  0.000000e+000  2.010000e+003
      vertex -3.050000e+003  1.950000e+003  0.000000e+000
      vertex -3.050000e+003  1.100000e+003  0.000000e+000
    endloop
  endfacet
  facet normal -1.000000e+000  0.000000e+000  0.000000e+000
    outer loop
      vertex -3.050000e+003  0.000000e+000  2.010000e+003
      vertex -3.050000e+003  1.100000e+003  0.000000e+000
      vertex -3.050000e+003  9.500000e+002  0.000000e+000
    endloop
  endfacet
  facet normal -9.999999e-001  0.000000e+000  0.000000e+000
    outer loop
      vertex -3.050000e+003  0.000000e+000  2.010000e+003
      vertex -3.050000e+003  9.500000e+002  0.000000e+000
      vertex -3.050000e+003  1.000000e+002  0.000000e+000
    endloop
  endfacet
  facet normal -1.000000e+000  0.000000e+000  0.000000e+000
    outer loop
      vertex -3.050000e+003  9.500000e+002 -7.000000e+001
      vertex -3.050000e+003  9.500000e+002  0.000000e+000
      vertex -3.050000e+003  1.100000e+003 -7.000000e+001
    endloop
  endfacet
  facet normal -1.000000e+000  0.000000e+000  0.000000e+000
    outer loop
      vertex -3.050000e+003  1.100000e+003 -7.000000e+001
      vertex -3.050000e+003  9.500000e+002  0.000000e+000
      vertex -3.050000e+003  1.100000e+003  0.000000e+000
    endloop
  endfacet
  facet normal -1.000000e+000  0.000000e+000  0.000000e+000
    outer loop
      vertex -3.050000e+003  1.950000e+003  0.000000e+000
      vertex -3.050000e+003  2.050000e+003  2.230000e+003
      vertex -3.050000e+003  1.950000e+003 -7.000000e+001
    endloop
  endfacet
  facet normal -1.000000e+000  0.000000e+000  0.000000e+000
    outer loop
      vertex -3.050000e+003  1.950000e+003 -7.000000e+001
      vertex -3.050000e+003  2.050000e+003  2.230000e+003
      vertex -3.050000e+003  2.050000e+003 -1.000000e+002
    endloop
  endfacet
  facet normal  0.000000e+000 -1.000000e+000  0.000000e+000
    outer loop
      vertex -3.050000e+003  0.000000e+000  2.010000e+003
      vertex -3.050000e+003  0.000000e+000 -1.000000e+002
      vertex -2.950000e+003  0.000000e+000 -7.000000e+001
    endloop
  endfacet
  facet normal  0.000000e+000 -1.000000e+000  0.000000e+000
    outer loop
      vertex -3.050000e+003  0.000000e+000  2.010000e+003
      vertex -2.950000e+003  0.000000e+000 -7.000000e+001
      vertex -2.950000e+003  0.000000e+000  0.000000e+000
    endloop
  endfacet
  facet normal  0.000000e+000 -1.000000e+000  0.000000e+000
    outer loop
      vertex -3.050000e+003  0.000000e+000  2.010000e+003
      vertex -2.950000e+003  0.000000e+000  0.000000e+000
      vertex -1.600000e+003  0.000000e+000  0.000000e+000
    endloop
  endfacet
  facet normal  0.000000e+000 -1.000000e+000  0.000000e+000
    outer loop
      vertex -3.050000e+003  0.000000e+000  2.010000e+003
      vertex -1.600000e+003  0.000000e+000  0.000000e+000
      vertex -1.450000e+003  0.000000e+000  0.000000e+000
    endloop
  endfacet
  facet normal  0.000000e+000 -1.000000e+000  0.000000e+000
    outer loop
      vertex -3.050000e+003  0.000000e+000  2.010000e+003
      vertex -1.450000e+003  0.000000e+000  0.000000e+000
      vertex -1.000000e+002  0.000000e+000  0.000000e+000
    endloop
  endfacet
  facet normal  0.000000e+000 -9.999999e-001  0.000000e+000
    outer loop
      vertex -3.050000e+003  0.000000e+000  2.010000e+003
      vertex -1.000000e+002  0.000000e+000  0.000000e+000
      vertex  0.000000e+000  0.000000e+000  2.010000e+003
    endloop
  endfacet
  facet normal  0.000000e+000 -1.000000e+000  0.000000e+000
    outer loop
      vertex -3.050000e+003  0.000000e+000 -1.000000e+002
      vertex  0.000000e+000  0.000000e+000 -1.000000e+002
      vertex -1.000000e+002  0.000000e+000 -7.000000e+001
    endloop
  endfacet
  facet normal  -0.000000e+000 -1.000000e+000  0.000000e+000
    outer loop
      vertex -3.050000e+003  0.000000e+000 -1.000000e+002
      vertex -1.000000e+002  0.000000e+000 -7.000000e+001
      vertex -1.450000e+003  0.000000e+000 -7.000000e+001
    endloop
  endfacet
  facet normal  4.547473e-015 -1.000000e+000 -2.425319e-013
    outer loop
      vertex -3.050000e+003  0.000000e+000 -1.000000e+002
      vertex -1.450000e+003  0.000000e+000 -7.000000e+001
      vertex -1.600000e+003 -6.821210e-013 -7.000000e+001
    endloop
  endfacet
  facet normal -5.052748e-016 -1.000000e+000  1.684250e-015
    outer loop
      vertex -3.050000e+003  0.000000e+000 -1.000000e+002
      vertex -1.600000e+003 -6.821210e-013 -7.000000e+001
      vertex -2.950000e+003  0.000000e+000 -7.000000e+001
    endloop
  endfacet
  facet normal  0.000000e+000 -1.000000e+000  0.000000e+000
    outer loop
      vertex -1.450000e+003  0.000000e+000  0.000000e+000
      vertex -1.600000e+003  0.000000e+000  0.000000e+000
      vertex -1.450000e+003  0.000000e+000 -7.000000e+001
    endloop
  endfacet
  facet normal  4.547473e-015 -1.000000e+000  9.744586e-015
    outer loop
      vertex -1.450000e+003  0.000000e+000 -7.000000e+001
      vertex -1.600000e+003  0.000000e+000  0.000000e+000
      vertex -1.600000e+003 -6.821210e-013 -7.000000e+001
    endloop
  endfacet
  facet normal  0.000000e+000 -1.000000e+000  0.000000e+000
    outer loop
      vertex -1.000000e+002  0.000000e+000 -7.000000e+001
      vertex  0.000000e+000  0.000000e+000 -1.000000e+002
      vertex -1.000000e+002  0.000000e+000  0.000000e+000
    endloop
  endfacet
  facet normal  0.000000e+000 -1.000000e+000  0.000000e+000
    outer loop
      vertex -1.000000e+002  0.000000e+000  0.000000e+000
      vertex  0.000000e+000  0.000000e+000 -1.000000e+002
      vertex  0.000000e+000  0.000000e+000  2.010000e+003
    endloop
  endfacet
  facet normal  0.000000e+000  1.000000e+000  0.000000e+000
    outer loop
      vertex -3.050000e+003  2.050000e+003 -1.000000e+002
      vertex -3.050000e+003  2.050000e+003  2.230000e+003
      vertex -2.950000e+003  2.050000e+003  2.040000e+003
    endloop
  endfacet
  facet normal  0.000000e+000  1.000000e+000  0.000000e+000
    outer loop
      vertex -3.050000e+003  2.050000e+003 -1.000000e+002
      vertex -2.950000e+003  2.050000e+003  2.040000e+003
      vertex -2.950000e+003  2.050000e+003  9.200000e+002
    endloop
  endfacet
  facet normal  0.000000e+000  1.000000e+000  0.000000e+000
    outer loop
      vertex -3.050000e+003  2.050000e+003 -1.000000e+002
      vertex -2.950000e+003  2.050000e+003  9.200000e+002
      vertex -2.950000e+003  2.050000e+003  0.000000e+000
    endloop
  endfacet
  facet normal  0.000000e+000  1.000000e+000  0.000000e+000
    outer loop
      vertex -3.050000e+003  2.050000e+003 -1.000000e+002
      vertex -2.950000e+003  2.050000e+003  0.000000e+000
      vertex -2.950000e+003  2.050000e+003 -7.000000e+001
    endloop
  endfacet
  facet normal  -0.000000e+000  1.000000e+000  0.000000e+000
    outer loop
      vertex -3.050000e+003  2.050000e+003 -1.000000e+002
      vertex -2.950000e+003  2.050000e+003 -7.000000e+001
      vertex -1.600000e+003  2.050000e+003 -7.000000e+001
    endloop
  endfacet
  facet normal  -0.000000e+000  1.000000e+000  0.000000e+000
    outer loop
      vertex -3.050000e+003  2.050000e+003 -1.000000e+002
      vertex -1.600000e+003  2.050000e+003 -7.000000e+001
      vertex -1.450000e+003  2.050000e+003 -7.000000e+001
    endloop
  endfacet
  facet normal  -0.000000e+000  1.000000e+000  0.000000e+000
    outer loop
      vertex -3.050000e+003  2.050000e+003 -1.000000e+002
      vertex -1.450000e+003  2.050000e+003 -7.000000e+001
      vertex -1.000000e+002  2.050000e+003 -7.000000e+001
    endloop
  endfacet
  facet normal  0.000000e+000  1.000000e+000  0.000000e+000
    outer loop
      vertex -3.050000e+003  2.050000e+003 -1.000000e+002
      vertex -1.000000e+002  2.050000e+003 -7.000000e+001
      vertex  0.000000e+000  2.050000e+003 -1.000000e+002
    endloop
  endfacet
  facet normal  0.000000e+000  1.000000e+000  0.000000e+000
    outer loop
      vertex -3.050000e+003  2.050000e+003  2.230000e+003
      vertex  0.000000e+000  2.050000e+003  2.230000e+003
      vertex -1.000000e+002  2.050000e+003  2.040000e+003
    endloop
  endfacet
  facet normal  0.000000e+000  1.000000e+000  0.000000e+000
    outer loop
      vertex -3.050000e+003  2.050000e+003  2.230000e+003
      vertex -1.000000e+002  2.050000e+003  2.040000e+003
      vertex -1.480000e+003  2.050000e+003  2.040000e+003
    endloop
  endfacet
  facet normal  0.000000e+000  1.000000e+000  0.000000e+000
    outer loop
      vertex -3.050000e+003  2.050000e+003  2.230000e+003
      vertex -1.480000e+003  2.050000e+003  2.040000e+003
      vertex -1.570000e+003  2.050000e+003  2.040000e+003
    endloop
  endfacet
  facet normal  0.000000e+000  1.000000e+000  0.000000e+000
    outer loop
      vertex -3.050000e+003  2.050000e+003  2.230000e+003
      vertex -1.570000e+003  2.050000e+003  2.040000e+003
      vertex -2.950000e+003  2.050000e+003  2.040000e+003
    endloop
  endfacet
  facet normal  -0.000000e+000  1.000000e+000  0.000000e+000
    outer loop
      vertex  0.000000e+000  2.050000e+003 -1.000000e+002
      vertex -1.000000e+002  2.050000e+003 -7.000000e+001
      vertex -1.000000e+002  2.050000e+003  0.000000e+000
    endloop
  endfacet
  facet normal  -0.000000e+000  1.000000e+000  0.000000e+000
    outer loop
      vertex  0.000000e+000  2.050000e+003 -1.000000e+002
      vertex -1.000000e+002  2.050000e+003  0.000000e+000
      vertex -1.000000e+002  2.050000e+003  9.200000e+002
    endloop
  endfacet
  facet normal  -0.000000e+000  1.000000e+000  0.000000e+000
    outer loop
      vertex  0.000000e+000  2.050000e+003 -1.000000e+002
      vertex -1.000000e+002  2.050000e+003  9.200000e+002
      vertex -1.000000e+002  2.050000e+003  2.040000e+003
    endloop
  endfacet
  facet normal  -0.000000e+000  1.000000e+000  0.000000e+000
    outer loop
      vertex  0.000000e+000  2.050000e+003 -1.000000e+002
      vertex -1.000000e+002  2.050000e+003  2.040000e+003
      vertex  0.000000e+000  2.050000e+003  2.230000e+003
    endloop
  endfacet
  facet normal  0.000000e+000  1.000000e+000  0.000000e+000
    outer loop
      vertex -1.600000e+003  2.050000e+003  0.000000e+000
      vertex -1.450000e+003  2.050000e+003 -7.000000e+001
      vertex -1.600000e+003  2.050000e+003 -7.000000e+001
    endloop
  endfacet
  facet normal  -0.000000e+000  1.000000e+000  0.000000e+000
    outer loop
      vertex -1.450000e+003  2.050000e+003 -7.000000e+001
      vertex -1.600000e+003  2.050000e+003  0.000000e+000
      vertex -1.450000e+003  2.050000e+003  0.000000e+000
    endloop
  endfacet
  facet normal  0.000000e+000  1.000000e+000  0.000000e+000
    outer loop
      vertex -1.450000e+003  2.050000e+003  0.000000e+000
      vertex -1.600000e+003  2.050000e+003  0.000000e+000
      vertex -1.570000e+003  2.050000e+003  9.200000e+002
    endloop
  endfacet
  facet normal  -0.000000e+000  1.000000e+000  0.000000e+000
    outer loop
      vertex -1.450000e+003  2.050000e+003  0.000000e+000
      vertex -1.570000e+003  2.050000e+003  9.200000e+002
      vertex -1.480000e+003  2.050000e+003  9.200000e+002
    endloop
  endfacet
  facet normal  0.000000e+000  9.999999e-001  0.000000e+000
    outer loop
      vertex -1.480000e+003  2.050000e+003  9.200000e+002
      vertex -1.570000e+003  2.050000e+003  9.200000e+002
      vertex -1.570000e+003  2.050000e+003  2.040000e+003
    endloop
  endfacet
  facet normal  -0.000000e+000  9.999999e-001  0.000000e+000
    outer loop
      vertex -1.480000e+003  2.050000e+003  9.200000e+002
      vertex -1.570000e+003  2.050000e+003  2.040000e+003
      vertex -1.480000e+003  2.050000e+003  2.040000e+003
    endloop
  endfacet
  facet normal  0.000000e+000  1.000000e+000  0.000000e+000
    outer loop
      vertex -1.600000e+003  2.050000e+003  0.000000e+000
      vertex -2.950000e+003  2.050000e+003  0.000000e+000
      vertex -1.570000e+003  2.050000e+003  9.200000e+002
    endloop
  endfacet
  facet normal  0.000000e+000  1.000000e+000  0.000000e+000
    outer loop
      vertex -1.570000e+003  2.050000e+003  9.200000e+002
      vertex -2.950000e+003  2.050000e+003  0.000000e+000
      vertex -2.950000e+003  2.050000e+003  9.200000e+002
    endloop
  endfacet
  facet normal  0.000000e+000  1.000000e+000  0.000000e+000
    outer loop
      vertex -1.450000e+003  2.050000e+003  0.000000e+000
      vertex -1.480000e+003  2.050000e+003  9.200000e+002
      vertex -1.000000e+002  2.050000e+003  0.000000e+000
    endloop
  endfacet
  facet normal  0.000000e+000  1.000000e+000  -0.000000e+000
    outer loop
      vertex -1.000000e+002  2.050000e+003  0.000000e+000
      vertex -1.480000e+003  2.050000e+003  9.200000e+002
      vertex -1.000000e+002  2.050000e+003  9.200000e+002
    endloop
  endfacet
  facet normal  1.000000e+000  0.000000e+000  0.000000e+000
    outer loop
      vertex  0.000000e+000  0.000000e+000 -1.000000e+002
      vertex  0.000000e+000  2.050000e+003 -1.000000e+002
      vertex  0.000000e+000  1.950000e+003 -7.000000e+001
    endloop
  endfacet
  facet normal  1.000000e+000  0.000000e+000  0.000000e+000
    outer loop
      vertex  0.000000e+000  0.000000e+000 -1.000000e+002
      vertex  0.000000e+000  1.950000e+003 -7.000000e+001
      vertex  0.000000e+000  1.100000e+003 -7.000000e+001
    endloop
  endfacet
  facet normal  1.000000e+000  0.000000e+000  0.000000e+000
    outer loop
      vertex  0.000000e+000  0.000000e+000 -1.000000e+002
      vertex  0.000000e+000  1.100000e+003 -7.000000e+001
      vertex  0.000000e+000  9.500000e+002 -7.000000e+001
    endloop
  endfacet
  facet normal  1.000000e+000  1.671865e-017 -5.294240e-016
    outer loop
      vertex  0.000000e+000  0.000000e+000 -1.000000e+002
      vertex  0.000000e+000  9.500000e+002 -7.000000e+001
      vertex  1.421085e-014  1.000000e+002 -7.000000e+001
    endloop
  endfacet
  facet normal  1.000000e+000 -2.030122e-016  2.030122e-016
    outer loop
      vertex  0.000000e+000  0.000000e+000 -1.000000e+002
      vertex  1.421085e-014  1.000000e+002 -7.000000e+001
      vertex  0.000000e+000  1.000000e+002  0.000000e+000
    endloop
  endfacet
  facet normal  1.000000e+000  0.000000e+000  0.000000e+000
    outer loop
      vertex  0.000000e+000  0.000000e+000 -1.000000e+002
      vertex  0.000000e+000  1.000000e+002  0.000000e+000
      vertex  0.000000e+000  0.000000e+000  2.010000e+003
    endloop
  endfacet
  facet normal  9.999999e-001  0.000000e+000  -0.000000e+000
    outer loop
      vertex  0.000000e+000  0.000000e+000  2.010000e+003
      vertex  0.000000e+000  1.000000e+002  0.000000e+000
      vertex  0.000000e+000  9.500000e+002  0.000000e+000
    endloop
  endfacet
  facet normal  1.000000e+000  0.000000e+000  -0.000000e+000
    outer loop
      vertex  0.000000e+000  0.000000e+000  2.010000e+003
      vertex  0.000000e+000  9.500000e+002  0.000000e+000
      vertex  0.000000e+000  1.100000e+003  0.000000e+000
    endloop
  endfacet
  facet normal  9.999999e-001  0.000000e+000  -0.000000e+000
    outer loop
      vertex  0.000000e+000  0.000000e+000  2.010000e+003
      vertex  0.000000e+000  1.100000e+003  0.000000e+000
      vertex  0.000000e+000  1.950000e+003  0.000000e+000
    endloop
  endfacet
  facet normal  1.000000e+000  0.000000e+000  -0.000000e+000
    outer loop
      vertex  0.000000e+000  0.000000e+000  2.010000e+003
      vertex  0.000000e+000  1.950000e+003  0.000000e+000
      vertex  0.000000e+000  2.050000e+003  2.230000e+003
    endloop
  endfacet
  facet normal  1.000000e+000  0.000000e+000  0.000000e+000
    outer loop
      vertex  0.000000e+000  9.500000e+002 -7.000000e+001
      vertex  0.000000e+000  1.100000e+003 -7.000000e+001
      vertex  0.000000e+000  9.500000e+002  0.000000e+000
    endloop
  endfacet
  facet normal  1.000000e+000  -0.000000e+000  0.000000e+000
    outer loop
      vertex  0.000000e+000  9.500000e+002  0.000000e+000
      vertex  0.000000e+000  1.100000e+003 -7.000000e+001
      vertex  0.000000e+000  1.100000e+003  0.000000e+000
    endloop
  endfacet
  facet normal  1.000000e+000  0.000000e+000  0.000000e+000
    outer loop
      vertex  0.000000e+000  1.950000e+003  0.000000e+000
      vertex  0.000000e+000  1.950000e+003 -7.000000e+001
      vertex  0.000000e+000  2.050000e+003  2.230000e+003
    endloop
  endfacet
  facet normal  1.000000e+000  0.000000e+000  0.000000e+000
    outer loop
      vertex  0.000000e+000  2.050000e+003  2.230000e+003
      vertex  0.000000e+000  1.950000e+003 -7.000000e+001
      vertex  0.000000e+000  2.050000e+003 -1.000000e+002
    endloop
  endfacet
  facet normal  0.000000e+000  0.000000e+000  1.000000e+000
    outer loop
      vertex -1.000000e+002  1.000000e+002 -7.000000e+001
      vertex  1.421085e-014  1.000000e+002 -7.000000e+001
      vertex -3.050000e+003  9.500000e+002 -7.000000e+001
    endloop
  endfacet
  facet normal  0.000000e+000  0.000000e+000  1.000000e+000
    outer loop
      vertex -1.000000e+002  1.000000e+002 -7.000000e+001
      vertex -3.050000e+003  9.500000e+002 -7.000000e+001
      vertex -1.450000e+003  1.000000e+002 -7.000000e+001
    endloop
  endfacet
  facet normal  -0.000000e+000  0.000000e+000  1.000000e+000
    outer loop
      vertex -1.000000e+002  1.000000e+002 -7.000000e+001
      vertex -1.450000e+003  1.000000e+002 -7.000000e+001
      vertex -1.450000e+003  0.000000e+000 -7.000000e+001
    endloop
  endfacet
  facet normal  0.000000e+000  0.000000e+000  1.000000e+000
    outer loop
      vertex -1.000000e+002  1.000000e+002 -7.000000e+001
      vertex -1.450000e+003  0.000000e+000 -7.000000e+001
      vertex -1.000000e+002  0.000000e+000 -7.000000e+001
    endloop
  endfacet
  facet normal  0.000000e+000  0.000000e+000  1.000000e+000
    outer loop
      vertex  1.421085e-014  1.000000e+002 -7.000000e+001
      vertex  0.000000e+000  9.500000e+002 -7.000000e+001
      vertex -1.000000e+002  9.500000e+002 -7.000000e+001
    endloop
  endfacet
  facet normal  0.000000e+000  0.000000e+000  1.000000e+000
    outer loop
      vertex  1.421085e-014  1.000000e+002 -7.000000e+001
      vertex -1.000000e+002  9.500000e+002 -7.000000e+001
      vertex -2.950000e+003  9.500000e+002 -7.000000e+001
    endloop
  endfacet
  facet normal  0.000000e+000  0.000000e+000  1.000000e+000
    outer loop
      vertex  1.421085e-014  1.000000e+002 -7.000000e+001
      vertex -2.950000e+003  9.500000e+002 -7.000000e+001
      vertex -3.050000e+003  9.500000e+002 -7.000000e+001
    endloop
  endfacet
  facet normal  0.000000e+000  0.000000e+000  1.000000e+000
    outer loop
      vertex -3.050000e+003  9.500000e+002 -7.000000e+001
      vertex -3.050000e+003  1.000000e+002 -7.000000e+001
      vertex -2.950000e+003  1.000000e+002 -7.000000e+001
    endloop
  endfacet
  facet normal  0.000000e+000  -0.000000e+000  1.000000e+000
    outer loop
      vertex -3.050000e+003  9.500000e+002 -7.000000e+001
      vertex -2.950000e+003  1.000000e+002 -7.000000e+001
      vertex -1.600000e+003  1.000000e+002 -7.000000e+001
    endloop
  endfacet
  facet normal  0.000000e+000  -0.000000e+000  1.000000e+000
    outer loop
      vertex -3.050000e+003  9.500000e+002 -7.000000e+001
      vertex -1.600000e+003  1.000000e+002 -7.000000e+001
      vertex -1.450000e+003  1.000000e+002 -7.000000e+001
    endloop
  endfacet
  facet normal  0.000000e+000  0.000000e+000  1.000000e+000
    outer loop
      vertex  0.000000e+000  1.100000e+003 -7.000000e+001
      vertex  0.000000e+000  1.950000e+003 -7.000000e+001
      vertex -1.000000e+002  1.950000e+003 -7.000000e+001
    endloop
  endfacet
  facet normal  0.000000e+000  0.000000e+000  1.000000e+000
    outer loop
      vertex  0.000000e+000  1.100000e+003 -7.000000e+001
      vertex -1.000000e+002  1.950000e+003 -7.000000e+001
      vertex -1.450000e+003  1.950000e+003 -7.000000e+001
    endloop
  endfacet
  facet normal  0.000000e+000  0.000000e+000  1.000000e+000
    outer loop
      vertex  0.000000e+000  1.100000e+003 -7.000000e+001
      vertex -1.450000e+003  1.950000e+003 -7.000000e+001
      vertex -1.600000e+003  1.950000e+003 -7.000000e+001
    endloop
  endfacet
  facet normal  0.000000e+000  0.000000e+000  1.000000e+000
    outer loop
      vertex  0.000000e+000  1.100000e+003 -7.000000e+001
      vertex -1.600000e+003  1.950000e+003 -7.000000e+001
      vertex -2.950000e+003  1.950000e+003 -7.000000e+001
    endloop
  endfacet
  facet normal  0.000000e+000  0.000000e+000  1.000000e+000
    outer loop
      vertex  0.000000e+000  1.100000e+003 -7.000000e+001
      vertex -2.950000e+003  1.950000e+003 -7.000000e+001
      vertex -3.050000e+003  1.950000e+003 -7.000000e+001
    endloop
  endfacet
  facet normal  0.000000e+000  0.000000e+000  1.000000e+000
    outer loop
      vertex -3.050000e+003  1.950000e+003 -7.000000e+001
      vertex -3.050000e+003  1.100000e+003 -7.000000e+001
      vertex -2.950000e+003  1.100000e+003 -7.000000e+001
    endloop
  endfacet
  facet normal  0.000000e+000  -0.000000e+000  1.000000e+000
    outer loop
      vertex -3.050000e+003  1.950000e+003 -7.000000e+001
      vertex -2.950000e+003  1.100000e+003 -7.000000e+001
      vertex -1.000000e+002  1.100000e+003 -7.000000e+001
    endloop
  endfacet
  facet normal  0.000000e+000  -0.000000e+000  1.000000e+000
    outer loop
      vertex -3.050000e+003  1.950000e+003 -7.000000e+001
      vertex -1.000000e+002  1.100000e+003 -7.000000e+001
      vertex  0.000000e+000  1.100000e+003 -7.000000e+001
    endloop
  endfacet
  facet normal  0.000000e+000  0.000000e+000  1.000000e+000
    outer loop
      vertex -2.950000e+003  1.100000e+003 -7.000000e+001
      vertex -2.950000e+003  9.500000e+002 -7.000000e+001
      vertex -1.000000e+002  1.100000e+003 -7.000000e+001
    endloop
  endfacet
  facet normal  0.000000e+000  0.000000e+000  1.000000e+000
    outer loop
      vertex -1.000000e+002  1.100000e+003 -7.000000e+001
      vertex -2.950000e+003  9.500000e+002 -7.000000e+001
      vertex -1.000000e+002  9.500000e+002 -7.000000e+001
    endloop
  endfacet
  facet normal  0.000000e+000  0.000000e+000  1.000000e+000
    outer loop
      vertex -2.950000e+003  2.050000e+003 -7.000000e+001
      vertex -2.950000e+003  1.950000e+003 -7.000000e+001
      vertex -1.600000e+003  2.050000e+003 -7.000000e+001
    endloop
  endfacet
  facet normal  0.000000e+000  0.000000e+000  1.000000e+000
    outer loop
      vertex -1.600000e+003  2.050000e+003 -7.000000e+001
      vertex -2.950000e+003  1.950000e+003 -7.000000e+001
      vertex -1.600000e+003  1.950000e+003 -7.000000e+001
    endloop
  endfacet
  facet normal  0.000000e+000  0.000000e+000  1.000000e+000
    outer loop
      vertex -2.950000e+003  1.000000e+002 -7.000000e+001
      vertex -2.950000e+003  0.000000e+000 -7.000000e+001
      vertex -1.600000e+003  1.000000e+002 -7.000000e+001
    endloop
  endfacet
  facet normal  0.000000e+000  0.000000e+000  1.000000e+000
    outer loop
      vertex -1.600000e+003  1.000000e+002 -7.000000e+001
      vertex -2.950000e+003  0.000000e+000 -7.000000e+001
      vertex -1.600000e+003 -6.821210e-013 -7.000000e+001
    endloop
  endfacet
  facet normal  0.000000e+000  0.000000e+000  1.000000e+000
    outer loop
      vertex -1.450000e+003  2.050000e+003 -7.000000e+001
      vertex -1.450000e+003  1.950000e+003 -7.000000e+001
      vertex -1.000000e+002  2.050000e+003 -7.000000e+001
    endloop
  endfacet
  facet normal  0.000000e+000  0.000000e+000  1.000000e+000
    outer loop
      vertex -1.000000e+002  2.050000e+003 -7.000000e+001
      vertex -1.450000e+003  1.950000e+003 -7.000000e+001
      vertex -1.000000e+002  1.950000e+003 -7.000000e+001
    endloop
  endfacet
  facet normal -1.000000e+000  -0.000000e+000  0.000000e+000
    outer loop
      vertex -1.000000e+002  9.500000e+002  0.000000e+000
      vertex -1.000000e+002  1.100000e+003  0.000000e+000
      vertex -1.000000e+002  9.500000e+002 -7.000000e+001
    endloop
  endfacet
  facet normal -1.000000e+000  0.000000e+000  0.000000e+000
    outer loop
      vertex -1.000000e+002  9.500000e+002 -7.000000e+001
      vertex -1.000000e+002  1.100000e+003  0.000000e+000
      vertex -1.000000e+002  1.100000e+003 -7.000000e+001
    endloop
  endfacet
  facet normal  0.000000e+000  1.000000e+000  0.000000e+000
    outer loop
      vertex -1.000000e+002  1.100000e+003 -7.000000e+001
      vertex -1.000000e+002  1.100000e+003  0.000000e+000
      vertex  0.000000e+000  1.100000e+003 -7.000000e+001
    endloop
  endfacet
  facet normal  0.000000e+000  1.000000e+000  -0.000000e+000
    outer loop
      vertex  0.000000e+000  1.100000e+003 -7.000000e+001
      vertex -1.000000e+002  1.100000e+003  0.000000e+000
      vertex  0.000000e+000  1.100000e+003  0.000000e+000
    endloop
  endfacet
  facet normal  0.000000e+000 -1.000000e+000  -0.000000e+000
    outer loop
      vertex  0.000000e+000  9.500000e+002 -7.000000e+001
      vertex  0.000000e+000  9.500000e+002  0.000000e+000
      vertex -1.000000e+002  9.500000e+002 -7.000000e+001
    endloop
  endfacet
  facet normal  0.000000e+000 -1.000000e+000  0.000000e+000
    outer loop
      vertex -1.000000e+002  9.500000e+002 -7.000000e+001
      vertex  0.000000e+000  9.500000e+002  0.000000e+000
      vertex -1.000000e+002  9.500000e+002  0.000000e+000
    endloop
  endfacet
  facet normal -1.000000e+000  -0.000000e+000  0.000000e+000
    outer loop
      vertex -1.000000e+002  1.950000e+003  0.000000e+000
      vertex -1.000000e+002  2.050000e+003  0.000000e+000
      vertex -1.000000e+002  1.950000e+003 -7.000000e+001
    endloop
  endfacet
  facet normal -1.000000e+000  0.000000e+000  0.000000e+000
    outer loop
      vertex -1.000000e+002  1.950000e+003 -7.000000e+001
      vertex -1.000000e+002  2.050000e+003  0.000000e+000
      vertex -1.000000e+002  2.050000e+003 -7.000000e+001
    endloop
  endfacet
  facet normal  0.000000e+000 -1.000000e+000  -0.000000e+000
    outer loop
      vertex  0.000000e+000  1.950000e+003 -7.000000e+001
      vertex  0.000000e+000  1.950000e+003  0.000000e+000
      vertex -1.000000e+002  1.950000e+003 -7.000000e+001
    endloop
  endfacet
  facet normal  0.000000e+000 -1.000000e+000  0.000000e+000
    outer loop
      vertex -1.000000e+002  1.950000e+003 -7.000000e+001
      vertex  0.000000e+000  1.950000e+003  0.000000e+000
      vertex -1.000000e+002  1.950000e+003  0.000000e+000
    endloop
  endfacet
  facet normal  0.000000e+000 -1.000000e+000  -0.000000e+000
    outer loop
      vertex -1.450000e+003  1.950000e+003 -7.000000e+001
      vertex -1.450000e+003  1.950000e+003  0.000000e+000
      vertex -1.600000e+003  1.950000e+003 -7.000000e+001
    endloop
  endfacet
  facet normal  0.000000e+000 -1.000000e+000  0.000000e+000
    outer loop
      vertex -1.600000e+003  1.950000e+003 -7.000000e+001
      vertex -1.450000e+003  1.950000e+003  0.000000e+000
      vertex -1.600000e+003  1.950000e+003  0.000000e+000
    endloop
  endfacet
  facet normal  1.000000e+000  0.000000e+000  0.000000e+000
    outer loop
      vertex -1.450000e+003  2.050000e+003 -7.000000e+001
      vertex -1.450000e+003  2.050000e+003  0.000000e+000
      vertex -1.450000e+003  1.950000e+003 -7.000000e+001
    endloop
  endfacet
  facet normal  1.000000e+000  0.000000e+000  0.000000e+000
    outer loop
      vertex -1.450000e+003  1.950000e+003 -7.000000e+001
      vertex -1.450000e+003  2.050000e+003  0.000000e+000
      vertex -1.450000e+003  1.950000e+003  0.000000e+000
    endloop
  endfacet
  facet normal -1.000000e+000  0.000000e+000  0.000000e+000
    outer loop
      vertex -1.600000e+003  1.950000e+003 -7.000000e+001
      vertex -1.600000e+003  1.950000e+003  0.000000e+000
      vertex -1.600000e+003  2.050000e+003 -7.000000e+001
    endloop
  endfacet
  facet normal -1.000000e+000  0.000000e+000  0.000000e+000
    outer loop
      vertex -1.600000e+003  2.050000e+003 -7.000000e+001
      vertex -1.600000e+003  1.950000e+003  0.000000e+000
      vertex -1.600000e+003  2.050000e+003  0.000000e+000
    endloop
  endfacet
  facet normal  0.000000e+000 -1.000000e+000  -0.000000e+000
    outer loop
      vertex -2.950000e+003  1.950000e+003 -7.000000e+001
      vertex -2.950000e+003  1.950000e+003  0.000000e+000
      vertex -3.050000e+003  1.950000e+003 -7.000000e+001
    endloop
  endfacet
  facet normal  0.000000e+000 -1.000000e+000  0.000000e+000
    outer loop
      vertex -3.050000e+003  1.950000e+003 -7.000000e+001
      vertex -2.950000e+003  1.950000e+003  0.000000e+000
      vertex -3.050000e+003  1.950000e+003  0.000000e+000
    endloop
  endfacet
  facet normal  1.000000e+000  0.000000e+000  0.000000e+000
    outer loop
      vertex -2.950000e+003  1.950000e+003 -7.000000e+001
      vertex -2.950000e+003  2.050000e+003 -7.000000e+001
      vertex -2.950000e+003  1.950000e+003  0.000000e+000
    endloop
  endfacet
  facet normal  1.000000e+000  -0.000000e+000  0.000000e+000
    outer loop
      vertex -2.950000e+003  1.950000e+003  0.000000e+000
      vertex -2.950000e+003  2.050000e+003 -7.000000e+001
      vertex -2.950000e+003  2.050000e+003  0.000000e+000
    endloop
  endfacet
  facet normal  1.000000e+000  0.000000e+000  0.000000e+000
    outer loop
      vertex -2.950000e+003  9.500000e+002 -7.000000e+001
      vertex -2.950000e+003  1.100000e+003 -7.000000e+001
      vertex -2.950000e+003  9.500000e+002  0.000000e+000
    endloop
  endfacet
  facet normal  1.000000e+000  -0.000000e+000  0.000000e+000
    outer loop
      vertex -2.950000e+003  9.500000e+002  0.000000e+000
      vertex -2.950000e+003  1.100000e+003 -7.000000e+001
      vertex -2.950000e+003  1.100000e+003  0.000000e+000
    endloop
  endfacet
  facet normal  0.000000e+000  1.000000e+000  0.000000e+000
    outer loop
      vertex -3.050000e+003  1.100000e+003 -7.000000e+001
      vertex -3.050000e+003  1.100000e+003  0.000000e+000
      vertex -2.950000e+003  1.100000e+003 -7.000000e+001
    endloop
  endfacet
  facet normal  0.000000e+000  1.000000e+000  -0.000000e+000
    outer loop
      vertex -2.950000e+003  1.100000e+003 -7.000000e+001
      vertex -3.050000e+003  1.100000e+003  0.000000e+000
      vertex -2.950000e+003  1.100000e+003  0.000000e+000
    endloop
  endfacet
  facet normal  0.000000e+000 -1.000000e+000  -0.000000e+000
    outer loop
      vertex -2.950000e+003  9.500000e+002 -7.000000e+001
      vertex -2.950000e+003  9.500000e+002  0.000000e+000
      vertex -3.050000e+003  9.500000e+002 -7.000000e+001
    endloop
  endfacet
  facet normal  0.000000e+000 -1.000000e+000  0.000000e+000
    outer loop
      vertex -3.050000e+003  9.500000e+002 -7.000000e+001
      vertex -2.950000e+003  9.500000e+002  0.000000e+000
      vertex -3.050000e+003  9.500000e+002  0.000000e+000
    endloop
  endfacet
  facet normal  1.000000e+000  0.000000e+000  0.000000e+000
    outer loop
      vertex -2.950000e+003  0.000000e+000 -7.000000e+001
      vertex -2.950000e+003  1.000000e+002 -7.000000e+001
      vertex -2.950000e+003  0.000000e+000  0.000000e+000
    endloop
  endfacet
  facet normal  1.000000e+000  -0.000000e+000  0.000000e+000
    outer loop
      vertex -2.950000e+003  0.000000e+000  0.000000e+000
      vertex -2.950000e+003  1.000000e+002 -7.000000e+001
      vertex -2.950000e+003  1.000000e+002  0.000000e+000
    endloop
  endfacet
  facet normal  0.000000e+000  1.000000e+000  0.000000e+000
    outer loop
      vertex -2.950000e+003  1.000000e+002 -7.000000e+001
      vertex -3.050000e+003  1.000000e+002 -7.000000e+001
      vertex -2.950000e+003  1.000000e+002  0.000000e+000
    endloop
  endfacet
  facet normal  0.000000e+000  1.000000e+000  0.000000e+000
    outer loop
      vertex -2.950000e+003  1.000000e+002  0.000000e+000
      vertex -3.050000e+003  1.000000e+002 -7.000000e+001
      vertex -3.050000e+003  1.000000e+002  0.000000e+000
    endloop
  endfacet
  facet normal  1.000000e+000  0.000000e+000  0.000000e+000
    outer loop
      vertex -1.450000e+003  1.000000e+002 -7.000000e+001
      vertex -1.450000e+003  1.000000e+002  0.000000e+000
      vertex -1.450000e+003  0.000000e+000 -7.000000e+001
    endloop
  endfacet
  facet normal  1.000000e+000  0.000000e+000  0.000000e+000
    outer loop
      vertex -1.450000e+003  0.000000e+000 -7.000000e+001
      vertex -1.450000e+003  1.000000e+002  0.000000e+000
      vertex -1.450000e+003  0.000000e+000  0.000000e+000
    endloop
  endfacet
  facet normal  0.000000e+000  1.000000e+000  0.000000e+000
    outer loop
      vertex -1.450000e+003  1.000000e+002 -7.000000e+001
      vertex -1.600000e+003  1.000000e+002 -7.000000e+001
      vertex -1.450000e+003  1.000000e+002  0.000000e+000
    endloop
  endfacet
  facet normal  0.000000e+000  1.000000e+000  0.000000e+000
    outer loop
      vertex -1.450000e+003  1.000000e+002  0.000000e+000
      vertex -1.600000e+003  1.000000e+002 -7.000000e+001
      vertex -1.600000e+003  1.000000e+002  0.000000e+000
    endloop
  endfacet
  facet normal -1.000000e+000  0.000000e+000  -0.000000e+000
    outer loop
      vertex -1.600000e+003 -6.821210e-013 -7.000000e+001
      vertex -1.600000e+003  0.000000e+000  0.000000e+000
      vertex -1.600000e+003  1.000000e+002 -7.000000e+001
    endloop
  endfacet
  facet normal -1.000000e+000  0.000000e+000  0.000000e+000
    outer loop
      vertex -1.600000e+003  1.000000e+002 -7.000000e+001
      vertex -1.600000e+003  0.000000e+000  0.000000e+000
      vertex -1.600000e+003  1.000000e+002  0.000000e+000
    endloop
  endfacet
  facet normal  0.000000e+000  1.000000e+000  0.000000e+000
    outer loop
      vertex  1.421085e-014  1.000000e+002 -7.000000e+001
      vertex -1.000000e+002  1.000000e+002 -7.000000e+001
      vertex  0.000000e+000  1.000000e+002  0.000000e+000
    endloop
  endfacet
  facet normal  0.000000e+000  1.000000e+000  0.000000e+000
    outer loop
      vertex  0.000000e+000  1.000000e+002  0.000000e+000
      vertex -1.000000e+002  1.000000e+002 -7.000000e+001
      vertex -1.000000e+002  1.000000e+002  0.000000e+000
    endloop
  endfacet
  facet normal -1.000000e+000  -0.000000e+000  0.000000e+000
    outer loop
      vertex -1.000000e+002  0.000000e+000  0.000000e+000
      vertex -1.000000e+002  1.000000e+002  0.000000e+000
      vertex -1.000000e+002  0.000000e+000 -7.000000e+001
    endloop
  endfacet
  facet normal -1.000000e+000  0.000000e+000  0.000000e+000
    outer loop
      vertex -1.000000e+002  0.000000e+000 -7.000000e+001
      vertex -1.000000e+002  1.000000e+002  0.000000e+000
      vertex -1.000000e+002  1.000000e+002 -7.000000e+001
    endloop
  endfacet
  facet normal  0.000000e+000  0.000000e+000 -1.000000e+000
    outer loop
      vertex -1.600000e+003  1.000000e+002  0.000000e+000
      vertex -1.600000e+003  0.000000e+000  0.000000e+000
      vertex -2.950000e+003  0.000000e+000  0.000000e+000
    endloop
  endfacet
  facet normal  0.000000e+000  0.000000e+000 -1.000000e+000
    outer loop
      vertex -1.600000e+003  1.000000e+002  0.000000e+000
      vertex -2.950000e+003  0.000000e+000  0.000000e+000
      vertex -1.600000e+003  1.950000e+003  0.000000e+000
    endloop
  endfacet
  facet normal  0.000000e+000  0.000000e+000 -1.000000e+000
    outer loop
      vertex -1.600000e+003  1.000000e+002  0.000000e+000
      vertex -1.600000e+003  1.950000e+003  0.000000e+000
      vertex -1.450000e+003  1.950000e+003  0.000000e+000
    endloop
  endfacet
  facet normal  0.000000e+000  -0.000000e+000 -1.000000e+000
    outer loop
      vertex -1.600000e+003  1.000000e+002  0.000000e+000
      vertex -1.450000e+003  1.950000e+003  0.000000e+000
      vertex -1.450000e+003  1.000000e+002  0.000000e+000
    endloop
  endfacet
  facet normal  -0.000000e+000  0.000000e+000 -1.000000e+000
    outer loop
      vertex -1.600000e+003  2.050000e+003  0.000000e+000
      vertex -1.600000e+003  1.950000e+003  0.000000e+000
      vertex -2.950000e+003  0.000000e+000  0.000000e+000
    endloop
  endfacet
  facet normal  0.000000e+000  0.000000e+000 -1.000000e+000
    outer loop
      vertex -1.600000e+003  2.050000e+003  0.000000e+000
      vertex -2.950000e+003  0.000000e+000  0.000000e+000
      vertex -2.950000e+003  1.000000e+002  0.000000e+000
    endloop
  endfacet
  facet normal  0.000000e+000  0.000000e+000 -1.000000e+000
    outer loop
      vertex -1.600000e+003  2.050000e+003  0.000000e+000
      vertex -2.950000e+003  1.000000e+002  0.000000e+000
      vertex -2.950000e+003  9.500000e+002  0.000000e+000
    endloop
  endfacet
  facet normal  0.000000e+000  0.000000e+000 -1.000000e+000
    outer loop
      vertex -1.600000e+003  2.050000e+003  0.000000e+000
      vertex -2.950000e+003  9.500000e+002  0.000000e+000
      vertex -2.950000e+003  1.100000e+003  0.000000e+000
    endloop
  endfacet
  facet normal  0.000000e+000  0.000000e+000 -1.000000e+000
    outer loop
      vertex -1.600000e+003  2.050000e+003  0.000000e+000
      vertex -2.950000e+003  1.100000e+003  0.000000e+000
      vertex -2.950000e+003  1.950000e+003  0.000000e+000
    endloop
  endfacet
  facet normal  0.000000e+000  0.000000e+000 -1.000000e+000
    outer loop
      vertex -1.600000e+003  2.050000e+003  0.000000e+000
      vertex -2.950000e+003  1.950000e+003  0.000000e+000
      vertex -2.950000e+003  2.050000e+003  0.000000e+000
    endloop
  endfacet
  facet normal  -0.000000e+000  -0.000000e+000 -1.000000e+000
    outer loop
      vertex -1.450000e+003  2.050000e+003  0.000000e+000
      vertex -1.000000e+002  2.050000e+003  0.000000e+000
      vertex -1.000000e+002  1.950000e+003  0.000000e+000
    endloop
  endfacet
  facet normal  -0.000000e+000  -0.000000e+000 -1.000000e+000
    outer loop
      vertex -1.450000e+003  2.050000e+003  0.000000e+000
      vertex -1.000000e+002  1.950000e+003  0.000000e+000
      vertex -1.000000e+002  1.100000e+003  0.000000e+000
    endloop
  endfacet
  facet normal  -0.000000e+000  -0.000000e+000 -1.000000e+000
    outer loop
      vertex -1.450000e+003  2.050000e+003  0.000000e+000
      vertex -1.000000e+002  1.100000e+003  0.000000e+000
      vertex -1.000000e+002  9.500000e+002  0.000000e+000
    endloop
  endfacet
  facet normal  -0.000000e+000  -0.000000e+000 -1.000000e+000
    outer loop
      vertex -1.450000e+003  2.050000e+003  0.000000e+000
      vertex -1.000000e+002  9.500000e+002  0.000000e+000
      vertex -1.000000e+002  1.000000e+002  0.000000e+000
    endloop
  endfacet
  facet normal  -0.000000e+000  -0.000000e+000 -1.000000e+000
    outer loop
      vertex -1.450000e+003  2.050000e+003  0.000000e+000
      vertex -1.000000e+002  1.000000e+002  0.000000e+000
      vertex -1.000000e+002  0.000000e+000  0.000000e+000
    endloop
  endfacet
  facet normal  0.000000e+000  0.000000e+000 -1.000000e+000
    outer loop
      vertex -1.000000e+002  0.000000e+000  0.000000e+000
      vertex -1.450000e+003  0.000000e+000  0.000000e+000
      vertex -1.450000e+003  1.000000e+002  0.000000e+000
    endloop
  endfacet
  facet normal  0.000000e+000  0.000000e+000 -1.000000e+000
    outer loop
      vertex -1.000000e+002  0.000000e+000  0.000000e+000
      vertex -1.450000e+003  1.000000e+002  0.000000e+000
      vertex -1.450000e+003  1.950000e+003  0.000000e+000
    endloop
  endfacet
  facet normal  0.000000e+000  0.000000e+000 -1.000000e+000
    outer loop
      vertex -1.000000e+002  0.000000e+000  0.000000e+000
      vertex -1.450000e+003  1.950000e+003  0.000000e+000
      vertex -1.450000e+003  2.050000e+003  0.000000e+000
    endloop
  endfacet
  facet normal  0.000000e+000  0.000000e+000 -1.000000e+000
    outer loop
      vertex -2.950000e+003  1.100000e+003  0.000000e+000
      vertex -3.050000e+003  1.100000e+003  0.000000e+000
      vertex -2.950000e+003  1.950000e+003  0.000000e+000
    endloop
  endfacet
  facet normal  -0.000000e+000  0.000000e+000 -1.000000e+000
    outer loop
      vertex -2.950000e+003  1.950000e+003  0.000000e+000
      vertex -3.050000e+003  1.100000e+003  0.000000e+000
      vertex -3.050000e+003  1.950000e+003  0.000000e+000
    endloop
  endfacet
  facet normal  0.000000e+000  0.000000e+000 -1.000000e+000
    outer loop
      vertex -2.950000e+003  1.000000e+002  0.000000e+000
      vertex -3.050000e+003  1.000000e+002  0.000000e+000
      vertex -2.950000e+003  9.500000e+002  0.000000e+000
    endloop
  endfacet
  facet normal  -0.000000e+000  0.000000e+000 -1.000000e+000
    outer loop
      vertex -2.950000e+003  9.500000e+002  0.000000e+000
      vertex -3.050000e+003  1.000000e+002  0.000000e+000
      vertex -3.050000e+003  9.500000e+002  0.000000e+000
    endloop
  endfacet
  facet normal  0.000000e+000  0.000000e+000 -1.000000e+000
    outer loop
      vertex  0.000000e+000  1.000000e+002  0.000000e+000
      vertex -1.000000e+002  1.000000e+002  0.000000e+000
      vertex  0.000000e+000  9.500000e+002  0.000000e+000
    endloop
  endfacet
  facet normal  -0.000000e+000  0.000000e+000 -1.000000e+000
    outer loop
      vertex  0.000000e+000  9.500000e+002  0.000000e+000
      vertex -1.000000e+002  1.000000e+002  0.000000e+000
      vertex -1.000000e+002  9.500000e+002  0.000000e+000
    endloop
  endfacet
  facet normal  0.000000e+000  0.000000e+000 -1.000000e+000
    outer loop
      vertex  0.000000e+000  1.100000e+003  0.000000e+000
      vertex -1.000000e+002  1.100000e+003  0.000000e+000
      vertex  0.000000e+000  1.950000e+003  0.000000e+000
    endloop
  endfacet
  facet normal  -0.000000e+000  0.000000e+000 -1.000000e+000
    outer loop
      vertex  0.000000e+000  1.950000e+003  0.000000e+000
      vertex -1.000000e+002  1.100000e+003  0.000000e+000
      vertex -1.000000e+002  1.950000e+003  0.000000e+000
    endloop
  endfacet
  facet normal  0.000000e+000  1.000000e+000  0.000000e+000
    outer loop
      vertex -1.590000e+003  2.050000e+003  9.400000e+002
      vertex -2.930000e+003  2.050000e+003  9.400000e+002
      vertex -1.590000e+003  2.050000e+003  2.020000e+003
    endloop
  endfacet
  facet normal  0.000000e+000  1.000000e+000  0.000000e+000
    outer loop
      vertex -1.590000e+003  2.050000e+003  2.020000e+003
      vertex -2.930000e+003  2.050000e+003  9.400000e+002
      vertex -2.930000e+003  2.050000e+003  2.020000e+003
    endloop
  endfacet
  facet normal  0.000000e+000  1.000000e+000  0.000000e+000
    outer loop
      vertex -1.200000e+002  2.050000e+003  9.400000e+002
      vertex -1.460000e+003  2.050000e+003  9.400000e+002
      vertex -1.200000e+002  2.050000e+003  2.020000e+003
    endloop
  endfacet
  facet normal  0.000000e+000  1.000000e+000  0.000000e+000
    outer loop
      vertex -1.200000e+002  2.050000e+003  2.020000e+003
      vertex -1.460000e+003  2.050000e+003  9.400000e+002
      vertex -1.460000e+003  2.050000e+003  2.020000e+003
    endloop
  endfacet
  facet normal  1.000000e+000  0.000000e+000  0.000000e+000
    outer loop
      vertex -1.590000e+003  2.030000e+003  2.020000e+003
      vertex -1.590000e+003  2.030000e+003  9.400000e+002
      vertex -1.590000e+003  2.050000e+003  2.020000e+003
    endloop
  endfacet
  facet normal  1.000000e+000  0.000000e+000  0.000000e+000
    outer loop
      vertex -1.590000e+003  2.050000e+003  2.020000e+003
      vertex -1.590000e+003  2.030000e+003  9.400000e+002
      vertex -1.590000e+003  2.050000e+003  9.400000e+002
    endloop
  endfacet
  facet normal  0.000000e+000  0.000000e+000 -9.999999e-001
    outer loop
      vertex -2.930000e+003  2.030000e+003  9.400000e+002
      vertex -2.930000e+003  2.050000e+003  9.400000e+002
      vertex -1.590000e+003  2.030000e+003  9.400000e+002
    endloop
  endfacet
  facet normal  0.000000e+000  0.000000e+000 -9.999999e-001
    outer loop
      vertex -1.590000e+003  2.030000e+003  9.400000e+002
      vertex -2.930000e+003  2.050000e+003  9.400000e+002
      vertex -1.590000e+003  2.050000e+003  9.400000e+002
    endloop
  endfacet
  facet normal -1.000000e+000  0.000000e+000  0.000000e+000
    outer loop
      vertex -2.930000e+003  2.030000e+003  9.400000e+002
      vertex -2.930000e+003  2.030000e+003  2.020000e+003
      vertex -2.930000e+003  2.050000e+003  9.400000e+002
    endloop
  endfacet
  facet normal -1.000000e+000  0.000000e+000  0.000000e+000
    outer loop
      vertex -2.930000e+003  2.050000e+003  9.400000e+002
      vertex -2.930000e+003  2.030000e+003  2.020000e+003
      vertex -2.930000e+003  2.050000e+003  2.020000e+003
    endloop
  endfacet
  facet normal  0.000000e+000  0.000000e+000  9.999999e-001
    outer loop
      vertex -1.590000e+003  2.030000e+003  2.020000e+003
      vertex -1.590000e+003  2.050000e+003  2.020000e+003
      vertex -2.930000e+003  2.030000e+003  2.020000e+003
    endloop
  endfacet
  facet normal  0.000000e+000  0.000000e+000  9.999999e-001
    outer loop
      vertex -2.930000e+003  2.030000e+003  2.020000e+003
      vertex -1.590000e+003  2.050000e+003  2.020000e+003
      vertex -2.930000e+003  2.050000e+003  2.020000e+003
    endloop
  endfacet
  facet normal  0.000000e+000  0.000000e+000 -9.999999e-001
    outer loop
      vertex -1.570000e+003  2.030000e+003  2.040000e+003
      vertex -2.950000e+003  2.030000e+003  2.040000e+003
      vertex -1.570000e+003  2.050000e+003  2.040000e+003
    endloop
  endfacet
  facet normal  -0.000000e+000  0.000000e+000 -9.999999e-001
    outer loop
      vertex -1.570000e+003  2.050000e+003  2.040000e+003
      vertex -2.950000e+003  2.030000e+003  2.040000e+003
      vertex -2.950000e+003  2.050000e+003  2.040000e+003
    endloop
  endfacet
  facet normal  1.000000e+000  0.000000e+000  0.000000e+000
    outer loop
      vertex -2.950000e+003  2.030000e+003  9.200000e+002
      vertex -2.950000e+003  2.050000e+003  9.200000e+002
      vertex -2.950000e+003  2.030000e+003  2.040000e+003
    endloop
  endfacet
  facet normal  1.000000e+000  -0.000000e+000  0.000000e+000
    outer loop
      vertex -2.950000e+003  2.030000e+003  2.040000e+003
      vertex -2.950000e+003  2.050000e+003  9.200000e+002
      vertex -2.950000e+003  2.050000e+003  2.040000e+003
    endloop
  endfacet
  facet normal  0.000000e+000  0.000000e+000  9.999999e-001
    outer loop
      vertex -2.950000e+003  2.030000e+003  9.200000e+002
      vertex -1.570000e+003  2.030000e+003  9.200000e+002
      vertex -2.950000e+003  2.050000e+003  9.200000e+002
    endloop
  endfacet
  facet normal  -0.000000e+000  0.000000e+000  9.999999e-001
    outer loop
      vertex -2.950000e+003  2.050000e+003  9.200000e+002
      vertex -1.570000e+003  2.030000e+003  9.200000e+002
      vertex -1.570000e+003  2.050000e+003  9.200000e+002
    endloop
  endfacet
  facet normal -1.000000e+000  -0.000000e+000  0.000000e+000
    outer loop
      vertex -1.570000e+003  2.030000e+003  2.040000e+003
      vertex -1.570000e+003  2.050000e+003  2.040000e+003
      vertex -1.570000e+003  2.030000e+003  9.200000e+002
    endloop
  endfacet
  facet normal -1.000000e+000  0.000000e+000  0.000000e+000
    outer loop
      vertex -1.570000e+003  2.030000e+003  9.200000e+002
      vertex -1.570000e+003  2.050000e+003  2.040000e+003
      vertex -1.570000e+003  2.050000e+003  9.200000e+002
    endloop
  endfacet
  facet normal  1.000000e+000  0.000000e+000  0.000000e+000
    outer loop
      vertex -1.200000e+002  2.030000e+003  2.020000e+003
      vertex -1.200000e+002  2.030000e+003  9.400000e+002
      vertex -1.200000e+002  2.050000e+003  2.020000e+003
    endloop
  endfacet
  facet normal  1.000000e+000  0.000000e+000  0.000000e+000
    outer loop
      vertex -1.200000e+002  2.050000e+003  2.020000e+003
      vertex -1.200000e+002  2.030000e+003  9.400000e+002
      vertex -1.200000e+002  2.050000e+003  9.400000e+002
    endloop
  endfacet
  facet normal  0.000000e+000  0.000000e+000 -9.999999e-001
    outer loop
      vertex -1.460000e+003  2.030000e+003  9.400000e+002
      vertex -1.460000e+003  2.050000e+003  9.400000e+002
      vertex -1.200000e+002  2.030000e+003  9.400000e+002
    endloop
  endfacet
  facet normal  0.000000e+000  0.000000e+000 -9.999999e-001
    outer loop
      vertex -1.200000e+002  2.030000e+003  9.400000e+002
      vertex -1.460000e+003  2.050000e+003  9.400000e+002
      vertex -1.200000e+002  2.050000e+003  9.400000e+002
    endloop
  endfacet
  facet normal -1.000000e+000  0.000000e+000  0.000000e+000
    outer loop
      vertex -1.460000e+003  2.030000e+003  9.400000e+002
      vertex -1.460000e+003  2.030000e+003  2.020000e+003
      vertex -1.460000e+003  2.050000e+003  9.400000e+002
    endloop
  endfacet
  facet normal -1.000000e+000  0.000000e+000  0.000000e+000
    outer loop
      vertex -1.460000e+003  2.050000e+003  9.400000e+002
      vertex -1.460000e+003  2.030000e+003  2.020000e+003
      vertex -1.460000e+003  2.050000e+003  2.020000e+003
    endloop
  endfacet
  facet normal  0.000000e+000  0.000000e+000  9.999999e-001
    outer loop
      vertex -1.200000e+002  2.030000e+003  2.020000e+003
      vertex -1.200000e+002  2.050000e+003  2.020000e+003
      vertex -1.460000e+003  2.030000e+003  2.020000e+003
    endloop
  endfacet
  facet normal  0.000000e+000  0.000000e+000  9.999999e-001
    outer loop
      vertex -1.460000e+003  2.030000e+003  2.020000e+003
      vertex -1.200000e+002  2.050000e+003  2.020000e+003
      vertex -1.460000e+003  2.050000e+003  2.020000e+003
    endloop
  endfacet
  facet normal  0.000000e+000  0.000000e+000 -9.999999e-001
    outer loop
      vertex -1.000000e+002  2.030000e+003  2.040000e+003
      vertex -1.480000e+003  2.030000e+003  2.040000e+003
      vertex -1.000000e+002  2.050000e+003  2.040000e+003
    endloop
  endfacet
  facet normal  -0.000000e+000  0.000000e+000 -9.999999e-001
    outer loop
      vertex -1.000000e+002  2.050000e+003  2.040000e+003
      vertex -1.480000e+003  2.030000e+003  2.040000e+003
      vertex -1.480000e+003  2.050000e+003  2.040000e+003
    endloop
  endfacet
  facet normal  1.000000e+000  0.000000e+000  0.000000e+000
    outer loop
      vertex -1.480000e+003  2.030000e+003  9.200000e+002
      vertex -1.480000e+003  2.050000e+003  9.200000e+002
      vertex -1.480000e+003  2.030000e+003  2.040000e+003
    endloop
  endfacet
  facet normal  1.000000e+000  -0.000000e+000  0.000000e+000
    outer loop
      vertex -1.480000e+003  2.030000e+003  2.040000e+003
      vertex -1.480000e+003  2.050000e+003  9.200000e+002
      vertex -1.480000e+003  2.050000e+003  2.040000e+003
    endloop
  endfacet
  facet normal  0.000000e+000  0.000000e+000  9.999999e-001
    outer loop
      vertex -1.480000e+003  2.030000e+003  9.200000e+002
      vertex -1.000000e+002  2.030000e+003  9.200000e+002
      vertex -1.480000e+003  2.050000e+003  9.200000e+002
    endloop
  endfacet
  facet normal  -0.000000e+000  0.000000e+000  9.999999e-001
    outer loop
      vertex -1.480000e+003  2.050000e+003  9.200000e+002
      vertex -1.000000e+002  2.030000e+003  9.200000e+002
      vertex -1.000000e+002  2.050000e+003  9.200000e+002
    endloop
  endfacet
  facet normal -1.000000e+000  -0.000000e+000  0.000000e+000
    outer loop
      vertex -1.000000e+002  2.030000e+003  2.040000e+003
      vertex -1.000000e+002  2.050000e+003  2.040000e+003
      vertex -1.000000e+002  2.030000e+003  9.200000e+002
    endloop
  endfacet
  facet normal -1.000000e+000  0.000000e+000  0.000000e+000
    outer loop
      vertex -1.000000e+002  2.030000e+003  9.200000e+002
      vertex -1.000000e+002  2.050000e+003  2.040000e+003
      vertex -1.000000e+002  2.050000e+003  9.200000e+002
    endloop
  endfacet
  facet normal  0.000000e+000  9.999999e-001  0.000000e+000
    outer loop
      vertex -2.950000e+003  2.030000e+003  9.200000e+002
      vertex -2.930000e+003  2.030000e+003  9.400000e+002
      vertex -1.570000e+003  2.030000e+003  9.200000e+002
    endloop
  endfacet
  facet normal  0.000000e+000  9.999999e-001  0.000000e+000
    outer loop
      vertex -1.570000e+003  2.030000e+003  9.200000e+002
      vertex -2.930000e+003  2.030000e+003  9.400000e+002
      vertex -1.590000e+003  2.030000e+003  9.400000e+002
    endloop
  endfacet
  facet normal  -0.000000e+000  1.000000e+000  0.000000e+000
    outer loop
      vertex -1.570000e+003  2.030000e+003  9.200000e+002
      vertex -1.590000e+003  2.030000e+003  9.400000e+002
      vertex -1.570000e+003  2.030000e+003  2.040000e+003
    endloop
  endfacet
  facet normal  0.000000e+000  1.000000e+000  0.000000e+000
    outer loop
      vertex -1.570000e+003  2.030000e+003  2.040000e+003
      vertex -1.590000e+003  2.030000e+003  9.400000e+002
      vertex -1.590000e+003  2.030000e+003  2.020000e+003
    endloop
  endfacet
  facet normal  0.000000e+000  9.999999e-001  -0.000000e+000
    outer loop
      vertex -1.570000e+003  2.030000e+003  2.040000e+003
      vertex -1.590000e+003  2.030000e+003  2.020000e+003
      vertex -2.950000e+003  2.030000e+003  2.040000e+003
    endloop
  endfacet
  facet normal  0.000000e+000  9.999999e-001  0.000000e+000
    outer loop
      vertex -2.950000e+003  2.030000e+003  2.040000e+003
      vertex -1.590000e+003  2.030000e+003  2.020000e+003
      vertex -2.930000e+003  2.030000e+003  2.020000e+003
    endloop
  endfacet
  facet normal  0.000000e+000  1.000000e+000  0.000000e+000
    outer loop
      vertex -2.950000e+003  2.030000e+003  2.040000e+003
      vertex -2.930000e+003  2.030000e+003  2.020000e+003
      vertex -2.950000e+003  2.030000e+003  9.200000e+002
    endloop
  endfacet
  facet normal  0.000000e+000  1.000000e+000  0.000000e+000
    outer loop
      vertex -2.950000e+003  2.030000e+003  9.200000e+002
      vertex -2.930000e+003  2.030000e+003  2.020000e+003
      vertex -2.930000e+003  2.030000e+003  9.400000e+002
    endloop
  endfacet
  facet normal  0.000000e+000  9.999999e-001  0.000000e+000
    outer loop
      vertex -1.480000e+003  2.030000e+003  9.200000e+002
      vertex -1.460000e+003  2.030000e+003  9.400000e+002
      vertex -1.000000e+002  2.030000e+003  9.200000e+002
    endloop
  endfacet
  facet normal  0.000000e+000  9.999999e-001  0.000000e+000
    outer loop
      vertex -1.000000e+002  2.030000e+003  9.200000e+002
      vertex -1.460000e+003  2.030000e+003  9.400000e+002
      vertex -1.200000e+002  2.030000e+003  9.400000e+002
    endloop
  endfacet
  facet normal  -0.000000e+000  1.000000e+000  0.000000e+000
    outer loop
      vertex -1.000000e+002  2.030000e+003  9.200000e+002
      vertex -1.200000e+002  2.030000e+003  9.400000e+002
      vertex -1.000000e+002  2.030000e+003  2.040000e+003
    endloop
  endfacet
  facet normal  0.000000e+000  1.000000e+000  0.000000e+000
    outer loop
      vertex -1.000000e+002  2.030000e+003  2.040000e+003
      vertex -1.200000e+002  2.030000e+003  9.400000e+002
      vertex -1.200000e+002  2.030000e+003  2.020000e+003
    endloop
  endfacet
  facet normal  0.000000e+000  9.999999e-001  -0.000000e+000
    outer loop
      vertex -1.000000e+002  2.030000e+003  2.040000e+003
      vertex -1.200000e+002  2.030000e+003  2.020000e+003
      vertex -1.480000e+003  2.030000e+003  2.040000e+003
    endloop
  endfacet
  facet normal  0.000000e+000  9.999999e-001  0.000000e+000
    outer loop
      vertex -1.480000e+003  2.030000e+003  2.040000e+003
      vertex -1.200000e+002  2.030000e+003  2.020000e+003
      vertex -1.460000e+003  2.030000e+003  2.020000e+003
    endloop
  endfacet
  facet normal  0.000000e+000  1.000000e+000  0.000000e+000
    outer loop
      vertex -1.480000e+003  2.030000e+003  2.040000e+003
      vertex -1.460000e+003  2.030000e+003  2.020000e+003
      vertex -1.480000e+003  2.030000e+003  9.200000e+002
    endloop
  endfacet
  facet normal  0.000000e+000  1.000000e+000  0.000000e+000
    outer loop
      vertex -1.480000e+003  2.030000e+003  9.200000e+002
      vertex -1.460000e+003  2.030000e+003  2.020000e+003
      vertex -1.460000e+003  2.030000e+003  9.400000e+002
    endloop
  endfacet
  facet normal  0.000000e+000 -1.067044e-001  9.942908e-001
    outer loop
      vertex -3.150000e+003 -3.004213e+002  1.997875e+003
      vertex  1.000000e+002 -3.004213e+002  1.997875e+003
      vertex -3.150000e+003  2.723984e+003  2.322445e+003
    endloop
  endfacet
  facet normal  0.000000e+000 -1.067044e-001  9.942908e-001
    outer loop
      vertex -3.150000e+003  2.723984e+003  2.322445e+003
      vertex  1.000000e+002 -3.004213e+002  1.997875e+003
      vertex  1.000000e+002  2.723984e+003  2.322445e+003
    endloop
  endfacet
  facet normal  0.000000e+000  9.942911e-001  1.067021e-001
    outer loop
      vertex -3.150000e+003  2.723984e+003  2.322445e+003
      vertex  1.000000e+002  2.723984e+003  2.322445e+003
      vertex -3.150000e+003  2.726118e+003  2.302559e+003
    endloop
  endfacet
  facet normal  -0.000000e+000  9.942911e-001  1.067021e-001
    outer loop
      vertex -3.150000e+003  2.726118e+003  2.302559e+003
      vertex  1.000000e+002  2.723984e+003  2.322445e+003
      vertex  1.000000e+002  2.726118e+003  2.302559e+003
    endloop
  endfacet
  facet normal  1.000000e+000  0.000000e+000  -0.000000e+000
    outer loop
      vertex  1.000000e+002 -3.004213e+002  1.997875e+003
      vertex  1.000000e+002 -2.982872e+002  1.977989e+003
      vertex  1.000000e+002  2.723984e+003  2.322445e+003
    endloop
  endfacet
  facet normal  1.000000e+000  0.000000e+000  0.000000e+000
    outer loop
      vertex  1.000000e+002  2.723984e+003  2.322445e+003
      vertex  1.000000e+002 -2.982872e+002  1.977989e+003
      vertex  1.000000e+002  2.726118e+003  2.302559e+003
    endloop
  endfacet
  facet normal  0.000000e+000 -9.942908e-001 -1.067045e-001
    outer loop
      vertex  1.000000e+002 -3.004213e+002  1.997875e+003
      vertex -3.150000e+003 -3.004213e+002  1.997875e+003
      vertex  1.000000e+002 -2.982872e+002  1.977989e+003
    endloop
  endfacet
  facet normal  -0.000000e+000 -9.942908e-001 -1.067045e-001
    outer loop
      vertex  1.000000e+002 -2.982872e+002  1.977989e+003
      vertex -3.150000e+003 -3.004213e+002  1.997875e+003
      vertex -3.150000e+003 -2.982872e+002  1.977989e+003
    endloop
  endfacet
  facet normal -1.000000e+000  -0.000000e+000  0.000000e+000
    outer loop
      vertex -3.150000e+003  2.723984e+003  2.322445e+003
      vertex -3.150000e+003  2.726118e+003  2.302559e+003
      vertex -3.150000e+003 -3.004213e+002  1.997875e+003
    endloop
  endfacet
  facet normal -1.000000e+000  0.000000e+000  0.000000e+000
    outer loop
      vertex -3.150000e+003 -3.004213e+002  1.997875e+003
      vertex -3.150000e+003  2.726118e+003  2.302559e+003
      vertex -3.150000e+003 -2.982872e+002  1.977989e+003
    endloop
  endfacet
endsolid CATIA STL
